PathFileType	4	(X/Y/Z)	D:\TRACE\spotREDO_2-26-24\spot_Both_Motion_3_9-platform.trc
DataRate	CameraRate	NumFrames	NumMarkers	Units	OrigDataRate	OrigDataStartFrame	OrigNumFrames
100.00	100.00	      61	5	mm	100.00	876	      7000
Frame#	Time	Left_Front			Right_Front			Left_Aft			Right_Aft			Post			
		X1	Y1	Z1	X2	Y2	Z2	X3	Y3	Z3	X4	Y4	Z4	X5	Y5	Z5	

876	8.750	-690.07251	-38.00910	-583.34778	724.72375	-24.75949	-498.91699	-761.96021	38.76770	632.65179	807.25055	46.32707	637.86804	4.52758	564.12146	-1025.18054	
877	8.760	-690.03943	-37.74819	-583.32477	724.69934	-24.54331	-498.80029	-761.99438	38.71986	632.69067	807.26794	46.32603	637.97308	4.59404	564.34357	-1025.04126	
878	8.770	-690.08392	-37.60086	-583.30963	724.58887	-24.30638	-498.80090	-762.06903	38.67971	632.70514	807.23035	46.17080	638.05182	4.44693	564.90643	-1024.47559	
879	8.780	-690.10492	-37.49908	-583.27753	724.57874	-24.18911	-498.76248	-762.12653	38.57707	632.70477	807.31445	45.99380	638.09131	4.41632	565.12891	-1024.19226	
880	8.790	-690.05945	-37.48130	-583.19055	724.53217	-24.01109	-498.83493	-762.09332	38.39573	632.67859	807.43091	45.78032	638.13733	4.42770	565.52374	-1023.92218	
881	8.800	-690.05902	-37.36301	-583.16656	724.61090	-23.83037	-498.68695	-762.20819	38.10191	632.66797	807.61084	45.42804	638.29498	4.40086	565.79425	-1023.77881	
882	8.810	-690.03583	-37.23175	-583.10162	724.60785	-23.60012	-498.68954	-762.26959	37.95689	632.67004	807.59686	45.33373	638.39380	4.13970	566.07770	-1023.91595	
883	8.820	-690.11340	-36.87025	-583.07794	724.58228	-23.49493	-498.68771	-762.24634	37.73126	632.77795	807.56091	45.20612	638.40381	4.04305	566.37061	-1023.84058	
884	8.830	-690.15112	-36.60812	-583.11383	724.52686	-23.32433	-498.59015	-762.20422	37.41963	632.93964	807.41968	44.98824	638.42303	3.98979	566.58868	-1023.72430	
885	8.840	-690.23096	-36.44430	-583.04810	724.61340	-23.40739	-498.53320	-762.10352	37.24748	633.10297	807.30530	44.78072	638.47565	4.09657	567.01147	-1023.45367	
886	8.850	-690.31256	-36.20222	-583.07788	724.82629	-23.27219	-498.50177	-762.09711	36.97637	633.17816	807.22809	44.60005	638.54199	4.51383	567.57367	-1022.93982	
887	8.860	-690.44110	-35.83178	-583.03546	724.77502	-22.92807	-498.50778	-762.15131	36.68275	633.24652	807.03766	44.42274	638.57483	4.26584	567.87543	-1022.81799	
888	8.870	-690.49530	-35.59485	-582.92688	724.66595	-22.46920	-498.51624	-762.25861	36.44738	633.37360	806.94220	44.17397	638.65680	3.98527	568.38635	-1022.63684	
889	8.880	-690.55658	-35.32398	-582.76019	724.51324	-22.22757	-498.42120	-762.36609	36.23864	633.42767	806.92676	43.94062	638.77478	3.56405	568.79407	-1022.20831	
890	8.890	-690.62213	-35.16965	-582.69843	724.46832	-22.06384	-498.34354	-762.43945	36.11137	633.40753	806.80389	43.66728	638.86310	3.81822	569.13318	-1021.70264	
891	8.900	-690.61816	-35.01701	-582.66333	724.04565	-21.82347	-498.36676	-762.78009	35.77607	633.51190	806.75061	43.36523	638.83990	3.78999	569.73297	-1021.13123	
892	8.910	-690.69147	-34.85371	-582.63037	723.97986	-21.70252	-498.34787	-762.77393	35.64597	633.60754	806.83459	43.17762	638.88226	3.78805	570.04059	-1020.62817	
893	8.920	-690.68945	-34.67594	-582.65643	724.04474	-21.62554	-498.25253	-762.63287	35.55490	633.82562	806.84833	42.99017	638.99817	3.76584	570.29388	-1020.47205	
894	8.930	-690.73669	-34.47877	-582.65674	724.05487	-21.42145	-498.13129	-762.58423	35.35415	633.89331	806.79968	42.79664	639.03601	3.75375	570.73688	-1020.30664	
895	8.940	-690.80151	-34.31895	-582.61646	724.01300	-21.32604	-498.04419	-762.61523	35.10151	634.02997	806.70624	42.60902	639.05865	3.65173	571.08582	-1020.14569	
896	8.950	-690.88586	-34.13947	-582.55798	723.84973	-21.04933	-498.10767	-762.64154	34.77415	634.07440	806.68347	42.41438	639.15826	3.47070	571.39063	-1019.99811	
897	8.960	-691.04779	-33.77950	-582.44189	723.83197	-20.99962	-498.10312	-762.96259	35.06405	634.07043	806.61371	42.14307	639.21326	3.38044	571.74774	-1019.91547	
898	8.970	-691.12207	-33.52216	-582.38885	723.72491	-20.88120	-498.08725	-763.06805	34.89110	634.05634	806.57684	41.87470	639.33600	3.32661	572.05646	-1019.87701	
899	8.980	-691.13586	-33.26577	-582.30829	723.61584	-20.73235	-497.98975	-762.83527	34.22358	634.14893	806.57874	41.66797	639.47589	3.16866	572.49426	-1019.82977	
900	8.990	-691.15436	-32.95452	-582.21375	723.20538	-20.38668	-498.36868	-763.04156	33.99326	634.13123	806.39838	41.41619	639.65753	3.09709	572.70496	-1019.72742	
901	9.000	-691.24701	-32.73828	-582.19916	723.29181	-20.20744	-497.99429	-763.08557	33.81035	634.20825	806.30634	41.27017	639.71271	3.17994	573.07690	-1019.43219	
902	9.010	-691.36041	-32.65659	-582.03125	723.21631	-20.00662	-498.00583	-763.18030	33.45723	634.26080	806.27765	41.11687	639.72308	2.81687	573.56879	-1019.02972	
903	9.020	-691.30316	-32.30524	-582.19562	723.29858	-19.78704	-497.90280	-763.24579	33.19033	634.31384	806.27826	40.95397	639.71613	3.06156	574.09991	-1018.45135	
904	9.030	-691.21753	-32.30891	-582.23242	723.26544	-19.63303	-497.90631	-763.21973	32.99786	634.37030	806.26160	40.61747	639.74677	3.08421	574.58405	-1017.92743	
905	9.040	-691.27155	-32.05563	-582.26007	723.21906	-19.05341	-497.87576	-763.29584	32.72023	634.39246	806.18237	40.34314	639.77338	2.70376	575.01392	-1017.46094	
906	9.050	-691.31787	-31.97598	-582.23798	723.22034	-18.78679	-497.81894	-763.34650	32.44127	634.57751	806.12604	39.99481	639.88531	2.84347	575.43103	-1017.01794	
907	9.060	-691.32684	-32.01475	-582.04401	723.05933	-18.56103	-497.75320	-763.32916	32.26500	634.67975	805.87671	39.71976	640.01971	2.65501	575.93054	-1016.75238	
908	9.070	-691.52216	-31.48912	-581.97418	723.06696	-18.47507	-497.70676	-763.28516	31.98082	634.77722	805.82251	39.52472	640.18640	2.63863	576.34790	-1016.50006	
909	9.080	-691.50446	-31.32779	-581.88428	723.07196	-18.42823	-497.63464	-763.26617	31.66726	634.88330	805.76776	39.19155	640.28973	2.76792	576.65588	-1016.33392	
910	9.090	-691.74268	-30.73244	-581.91260	723.01965	-18.33264	-497.55963	-763.32385	31.49063	634.90631	805.79437	38.89044	640.35687	3.00320	577.01843	-1016.13995	
911	9.100	-691.75494	-30.47649	-581.88483	723.00842	-18.16309	-497.50415	-763.24115	31.35392	635.04065	805.70007	38.78448	640.32434	2.97992	577.23779	-1016.20026	
912	9.110	-691.69513	-30.26560	-581.90796	722.97351	-17.79857	-497.42068	-763.34363	31.08398	635.09430	805.75006	38.64553	640.35828	2.95241	577.77753	-1016.05347	
913	9.120	-691.62354	-30.11653	-581.89703	722.97461	-17.68284	-497.36020	-763.42548	30.92273	635.09607	805.88965	38.44738	640.37976	2.82173	578.19446	-1015.97357	
914	9.130	-691.57214	-29.92587	-581.88776	723.05682	-17.49255	-497.19693	-763.34656	30.72896	635.08105	806.02728	38.30616	640.45502	2.83780	578.36646	-1015.84949	
915	9.140	-691.56470	-29.69969	-581.89948	723.05280	-17.39600	-497.16275	-763.34692	30.59010	635.08636	806.30261	38.23162	640.47443	2.72436	578.63727	-1015.48486	
916	9.150	-691.44080	-29.99563	-581.51947	723.06085	-17.27573	-497.10388	-763.35889	30.37881	635.09137	806.09314	38.06575	640.59583	2.74262	578.98132	-1015.04327	
917	9.160	-691.40997	-29.74462	-581.58801	723.00964	-17.09981	-497.09543	-763.35364	30.21698	635.16302	805.93500	37.87750	640.75049	2.86685	579.34253	-1014.73676	
918	9.170	-691.29950	-29.47234	-581.72949	722.96973	-16.95425	-497.11081	-763.38708	30.04551	635.25287	805.89191	37.59590	640.81049	2.83088	579.71857	-1014.40485	
919	9.180	-691.36835	-29.29246	-581.51923	723.05957	-16.80112	-497.03091	-763.33014	29.68035	635.35382	805.73315	37.31156	641.00891	2.87973	580.23242	-1013.96667	
920	9.190	-691.41962	-29.04286	-581.45508	723.10217	-16.62893	-497.03519	-763.30688	29.45000	635.48260	805.65210	36.97777	641.03998	2.83681	580.36884	-1013.66278	
921	9.200	-691.57257	-28.67892	-581.36359	723.04449	-16.53860	-497.04092	-763.31024	29.16381	635.55377	805.69080	36.81347	641.10651	2.89808	580.49927	-1013.39545	
922	9.210	-691.59827	-28.44483	-581.30518	722.82611	-16.10311	-497.12256	-763.29034	28.97215	635.66968	805.69476	36.71506	641.18652	2.86804	580.92316	-1012.94263	
923	9.220	-691.60034	-28.25414	-581.25928	722.97559	-15.98779	-496.97488	-763.35724	28.84464	635.71844	805.88129	36.57380	641.23132	3.15746	581.30927	-1012.55212	
924	9.230	-691.55499	-28.10409	-581.24841	723.00818	-15.71110	-497.02386	-763.37122	28.76169	635.74518	805.85596	36.38426	641.25580	2.93243	581.66333	-1012.37506	
925	9.240	-691.39520	-28.24322	-581.29193	723.12677	-15.57973	-496.94382	-763.39728	28.69345	635.73859	806.12244	36.03945	641.38031	3.01606	581.98309	-1012.39813	
926	9.250	-691.13416	-28.23235	-581.30597	723.29883	-15.39900	-496.97055	-763.31470	28.58557	635.76331	806.08069	35.85359	641.31873	2.82726	582.30408	-1012.54370	
927	9.260	-690.95850	-27.78914	-581.50330	723.44348	-15.25691	-496.99792	-763.17078	28.59858	635.77991	806.15710	35.76226	641.35437	2.98522	582.52393	-1012.44525	
928	9.270	-690.69769	-27.55688	-581.53278	723.40045	-15.13186	-497.06363	-762.95294	28.54034	635.87292	806.36816	35.62993	641.34283	3.09944	582.69250	-1012.37921	
929	9.280	-690.55042	-27.35262	-581.52771	723.58752	-15.06582	-496.92041	-762.80957	28.35802	635.90405	806.42664	35.50534	641.38007	3.18173	582.80804	-1012.24896	
930	9.290	-690.76654	-26.96410	-581.26422	723.57349	-14.95519	-496.99847	-762.59314	28.02677	635.91626	806.49152	35.44276	641.38245	3.22477	583.02771	-1012.02496	
931	9.300	-690.65619	-27.02856	-581.18982	723.64471	-14.95401	-497.16608	-762.42218	27.76140	636.01312	806.53217	35.34359	641.39581	3.35269	583.24628	-1011.78296	
932	9.310	-690.56586	-27.02133	-581.03503	724.03992	-14.87295	-496.73990	-762.35352	27.61612	636.13214	806.55481	35.27594	641.43347	3.56305	583.49261	-1011.55438	
933	9.320	-690.37787	-26.95436	-581.01910	724.13507	-14.72605	-496.59076	-762.16602	27.45357	636.15204	807.09131	34.95269	641.49341	3.79003	583.76978	-1011.32751	
934	9.330	-690.26587	-26.89365	-580.93970	724.26801	-14.62299	-496.49542	-762.02417	27.43773	636.20905	807.33051	34.76558	641.54858	3.99116	583.93909	-1011.12311	
935	9.340	-690.10706	-26.86039	-580.96979	724.35144	-14.57270	-496.52136	-761.89087	27.43382	636.20959	807.47711	34.76390	641.50226	4.24808	584.08905	-1010.92639	
936	9.350	-689.92877	-26.76195	-580.94678	724.78937	-14.87908	-496.41418	-761.74457	27.24419	636.22070	807.70276	34.55838	641.59198	5.61164	584.05627	-1010.81201	
